<?xml version="1.0" encoding="UTF-8" standalone="no"?><svg width="866" height="711" viewBox="0 0 866 711" fill="none" xmlns="http://www.w3.org/2000/svg">
<path d="M863.252 54.9993C857.35 36.7675 846.054 19.1814 828.628 9.97687C810.392 0.341871 790.852 -2.59547 770.564 2.38029C734.896 10.8998 699.849 21.8389 665.669 35.1215C632.324 48.2889 599.271 62.7478 568.625 81.486C520.236 111.049 476.709 149.412 446.404 197.701C413.541 187.901 380.096 182.052 346.005 178.013C318.28 174.536 290.237 174.426 262.486 177.684C242.806 180.14 223.227 182.672 204.13 188.142C185.69 193.613 167.776 200.719 150.599 209.374C133.44 217.845 118.648 229.126 103.604 240.926C93.2568 248.994 83.7983 258.14 75.3883 268.21C62.5344 283.656 50.2757 299.862 40.917 317.588C30.8523 336.752 22.6342 356.83 16.3741 377.55C9.48489 400.517 6.24308 424.067 3.24172 447.806C0.7756 467.737 -0.295037 487.815 0.0376958 507.895C0.72155 564.236 9.42169 620.894 21.5664 675.817C28.0251 705.039 35.7501 733.956 44.3616 762.621C49.8704 781.03 62.2685 797.856 78.985 807.643C95.1442 817.088 118.94 821.089 137.049 815.24C155.159 809.391 172.876 798.046 182.082 780.625C191.441 762.899 195.569 742.249 189.681 722.574C174.978 673.64 162.757 623.857 155.273 573.213C150.562 534.141 148.941 494.5 153.082 455.339C155.997 437.065 160.661 419.114 167.012 401.733C171.855 391.516 177.526 381.714 183.969 372.422C189.811 365.642 196.139 359.294 202.902 353.431C211.092 347.802 219.704 342.812 228.66 338.504C242.303 333.546 256.367 329.834 270.679 327.413C294.593 325.232 318.667 325.517 342.522 328.261C363.844 331.695 384.912 336.547 405.589 342.783C405.854 381.792 415.302 419.876 430.397 455.668C445.399 491.605 466.634 524.608 493.122 553.158C506.166 567.199 521.147 579.024 536.623 590.292C550.819 600.624 566.484 607.435 582.884 613.715C597.516 619.325 613.15 621.846 628.803 621.122C639.036 620.527 650.092 619.628 659.957 616.184C678.471 609.727 687.703 604.004 702.571 591.559C714.336 581.721 724.277 568.769 732.458 556.108C738.182 547.245 741.931 536.876 745.857 527.165C747.445 523.364 748.716 519.439 749.656 515.428C756.228 486.194 755.468 454.529 744.413 426.422C738.499 411.38 732.294 396.63 723.454 383.096C714.045 368.828 703.581 355.285 692.148 342.581C671.519 319.462 646.774 300.103 621.737 282.023C610.568 273.954 599.056 266.399 587.203 259.36C597.076 248.292 607.802 238.013 619.281 228.619C644.938 209.919 672.798 194.776 701.748 181.989C737.191 167.981 773.587 156.511 810.658 147.665C828.742 143.234 846.396 128.927 855.691 113.037C865.113 96.8944 869.09 73.1045 863.252 54.9993Z" fill="#282828"/>
</svg>
