<?xml version="1.0" encoding="UTF-8" standalone="no"?><svg width="600" height="600" viewBox="0 0 600 600" fill="none" xmlns="http://www.w3.org/2000/svg">
<mask id="mask0_605_1529" style="mask-type:luminance" maskUnits="userSpaceOnUse" x="263" y="260" width="244" height="244">
<path d="M506.316 381.658C506.316 448.843 451.843 503.316 384.658 503.316C317.47 503.316 263 448.843 263 381.658C263 314.47 317.47 260 384.658 260C451.843 260 506.316 314.47 506.316 381.658Z" fill="white"/>
</mask>
<g mask="url(#mask0_605_1529)">
<path d="M246.504 309.865H311.342V245.027H246.504V309.865ZM316.984 315.51H240.86V239.386H316.984V315.51Z" fill="#C15550"/>
<path d="M316.983 309.865H381.821V245.027H316.983V309.865ZM387.478 315.51H311.342V239.386H387.478V315.51Z" fill="#C15550"/>
<path d="M387.484 309.865H452.321V245.027H387.484V309.865ZM457.962 315.51H381.827V239.386H457.962V315.51Z" fill="#C15550"/>
<path d="M457.963 309.865H522.789V245.027H457.963V309.865ZM528.445 315.51H452.321V239.386H528.445V315.51Z" fill="#C15550"/>
<path d="M246.504 380.348H311.342V315.51H246.504V380.348ZM316.984 385.99H240.86V309.866H316.984V385.99Z" fill="#C15550"/>
<path d="M316.983 380.348H381.821V315.51H316.983V380.348ZM387.478 385.99H311.342V309.866H387.478V385.99Z" fill="#C15550"/>
<path d="M387.484 380.348H452.321V315.51H387.484V380.348ZM457.962 385.99H381.827V309.866H457.962V385.99Z" fill="#C15550"/>
<path d="M457.963 380.348H522.789V315.51H457.963V380.348ZM528.445 385.99H452.321V309.866H528.445V385.99Z" fill="#C15550"/>
<path d="M246.504 450.826H311.342V385.989H246.504V450.826ZM316.984 456.472H240.86V380.348H316.984V456.472Z" fill="#C15550"/>
<path d="M316.983 450.826H381.821V385.989H316.983V450.826ZM387.478 456.472H311.342V380.348H387.478V456.472Z" fill="#C15550"/>
<path d="M387.484 450.826H452.321V385.989H387.484V450.826ZM457.962 456.472H381.827V380.348H457.962V456.472Z" fill="#C15550"/>
<path d="M457.963 450.826H522.789V385.989H457.963V450.826ZM528.445 456.472H452.321V380.348H528.445V456.472Z" fill="#C15550"/>
<path d="M246.504 521.308H311.342V456.471H246.504V521.308ZM316.984 526.965H240.86V450.826H316.984V526.965Z" fill="#C15550"/>
<path d="M316.983 521.308H381.821V456.471H316.983V521.308ZM387.478 526.965H311.342V450.826H387.478V526.965Z" fill="#C15550"/>
<path d="M387.484 521.308H452.321V456.471H387.484V521.308ZM457.962 526.965H381.827V450.826H457.962V526.965Z" fill="#C15550"/>
<path d="M457.963 521.308H522.789V456.471H457.963V521.308ZM528.445 526.965H452.321V450.826H528.445V526.965Z" fill="#C15550"/>
</g>
<g clip-path="url(#clip0_605_1529)">
<path d="M280.619 151.69C280.619 191.957 247.976 224.6 207.708 224.6C167.438 224.6 134.795 191.957 134.795 151.69C134.795 111.422 167.438 78.7783 207.708 78.7783C247.976 78.7783 280.619 111.422 280.619 151.69Z" fill="#FDDDA1"/>
<path fill-rule="evenodd" clip-rule="evenodd" d="M280.619 151.69C280.619 111.449 247.949 78.7783 207.707 78.7783C167.466 78.7783 134.795 111.449 134.795 151.69C134.795 191.93 167.466 224.6 207.707 224.6C247.949 224.6 280.619 191.93 280.619 151.69Z" stroke="black" stroke-width="4.33674" stroke-miterlimit="10"/>
<path d="M202.113 169.921L158.76 148.244L202.113 126.568V133.634L172.967 148.208V148.281L202.113 162.854V169.921ZM218.444 180.759L237.96 115.729H244.551L225.035 180.759H218.444ZM260.845 169.921L304.199 148.244L260.845 126.568V133.634L289.991 148.208V148.281L260.845 162.854V169.921Z" fill="black"/>
<g opacity="0.5">
<path d="M383.37 269.196C383.37 323.119 341.223 366.832 289.233 366.832C237.243 366.832 195.096 323.119 195.096 269.196C195.096 215.274 237.243 171.561 289.233 171.561C341.223 171.561 383.37 215.274 383.37 269.196Z" fill="#FDDDA1"/>
</g>
<path d="M250.846 370.116L131.936 532.886C125.581 541.583 113.379 543.484 104.679 537.129C95.9808 530.773 94.0803 518.572 100.436 509.871L219.345 347.102L250.846 370.116Z" fill="#D04C4B"/>
<path d="M250.846 370.116L218.827 347.813L220.055 347.624C208.997 363.506 197.779 379.279 186.536 395.028C163.79 427.187 133.502 468.902 110.204 501.024C108.32 503.639 104.631 508.712 102.754 511.308C97.2795 518.513 98.8401 529.689 106.261 534.963C114.172 540.991 126.044 538.237 131.058 529.761L133.192 526.865C135.839 523.264 143.239 513.247 145.998 509.502C177.566 466.683 218.572 412.68 250.846 370.116ZM250.846 370.116C220.111 413.826 181.447 468.9 150.226 511.986C147.457 515.795 140.048 526.064 137.349 529.777L135.202 532.743C128.783 543.551 113.243 547.004 103.097 539.294C92.5175 531.729 90.9916 516.416 99.4376 506.638C103.273 501.436 110.585 491.504 114.501 486.191C134.787 458.652 163.321 419.828 183.664 392.931C195.429 377.188 207.224 361.469 219.18 345.867L219.865 346.392L250.846 370.116Z" fill="black"/>
<path d="M289.233 367.927C237.243 367.927 195.096 324.215 195.096 270.292C195.096 216.369 237.243 172.656 289.233 172.656C341.223 172.656 383.37 216.369 383.37 270.292C383.37 324.215 341.223 367.927 289.233 367.927ZM286.902 162.055C227.766 162.055 179.829 210.562 179.829 270.399C179.829 330.232 227.766 378.739 286.902 378.739C346.034 378.739 393.971 330.232 393.971 270.399C393.971 210.562 346.034 162.055 286.902 162.055Z" fill="#D04C4B"/>
<path d="M286.901 162.055C329.805 161.38 370.469 189.291 386.7 228.822C416.995 300.092 365.011 381.374 286.901 381.497C208.792 381.339 156.829 300.103 187.113 228.825C203.341 189.296 243.994 161.378 286.901 162.055ZM286.901 162.055C210.738 162.227 160.113 241.444 189.659 310.934C226.936 397.54 346.863 397.527 384.13 310.926C413.673 241.45 363.059 162.221 286.901 162.055Z" fill="black"/>
<path d="M289.233 367.927C357.063 367.951 400.146 295.134 374.632 234.206C342.069 156.064 236.399 156.013 203.818 234.203C178.309 295.14 221.397 367.954 289.233 367.927ZM289.233 367.927C203.435 366.918 163.344 262.06 220.369 200.28C256.956 159.975 321.515 159.956 358.104 200.274C415.151 262.055 375.023 366.929 289.233 367.927Z" fill="black"/>
<path d="M362.592 246.016C365.117 255.005 369.078 274.161 362.169 296.051C359.179 305.525 354.936 313.029 351.143 318.527" stroke="black" stroke-width="4.80575" stroke-miterlimit="10"/>
<path d="M205.98 372.804L195.095 389.447L220.336 410.844L234.695 391.824L205.98 372.804Z" fill="#FFE0A3"/>
<path d="M206.087 370.68C211.204 373.802 216.209 377.073 221.199 380.368C226.414 383.49 231.233 386.981 234.804 392.077L234.587 392.366C228.682 390.404 223.959 386.783 219.475 382.678C214.892 378.84 210.328 374.98 205.874 370.969L206.087 370.68Z" fill="black"/>
<path d="M191.73 389.303C196.845 392.424 201.851 395.695 206.841 398.991C212.056 402.114 216.874 405.602 220.445 410.7L220.229 410.989C214.323 409.027 209.601 405.405 205.117 401.301C200.534 397.462 195.97 393.602 191.515 389.592L191.73 389.303Z" fill="black"/>
</g>
<defs>
<clipPath id="clip0_605_1529">
<rect width="301.966" height="487" fill="white" transform="translate(94 57)"/>
</clipPath>
</defs>
</svg>
