<?xml version="1.0" encoding="UTF-8"?>
<svg version="1.1" xmlns="http://www.w3.org/2000/svg" width="512" height="512">
<path d="M0 0 C62.37 0 124.74 0 189 0 C189 34.98 189 69.96 189 106 C219.69 106 250.38 106 282 106 C282 235.36 282 364.72 282 498 C219.63 498 157.26 498 93 498 C93 463.68 93 429.36 93 394 C62.31 393.67 31.62 393.34 0 393 C0 263.31 0 133.62 0 0 Z M96 109 C96 202.06 96 295.12 96 391 C125.7 391 155.4 391 186 391 C186 297.94 186 204.88 186 109 C156.3 109 126.6 109 96 109 Z " fill="#000000" transform="translate(115,7)"/>
</svg>
