<?xml version="1.0" encoding="UTF-8" standalone="no"?><!DOCTYPE svg PUBLIC "-//W3C//DTD SVG 1.1//EN" "http://www.w3.org/Graphics/SVG/1.1/DTD/svg11.dtd"><svg width="100%" height="100%" viewBox="0 0 5582 7000" version="1.1" xmlns="http://www.w3.org/2000/svg" xmlns:xlink="http://www.w3.org/1999/xlink" xml:space="preserve" xmlns:serif="http://www.serif.com/" style="fill-rule:evenodd;clip-rule:evenodd;stroke-linejoin:round;stroke-miterlimit:2;"><g><g><path d="M5559.46,5421.91l-2684.71,1551.83l-0.692,-0.417l0,-2126.08l2684.73,-1551.75l0.666,0.375l0,2126.04Z" style="fill:#2a2629;fill-rule:nonzero;"/><path d="M2895.95,4859.87l-0,2076.42l2641.64,-1526.92l0,-2076.38l-2641.64,1526.88Zm-20.804,2138.92l-22.846,-11.916l-0,-2150.29l8.875,-6.958l2697.45,-1559.29l22.625,12.334l0,2150l-11.042,8.375l-2695.07,1557.75Z" style="fill:#150035;fill-rule:nonzero;"/><path d="M3027.49,6743.33l-0,-1022.71l33.662,-0l0,964.708l2318.1,-1323.96l0,-1745.21l33.667,0l-0,1764.71l-2385.43,1362.46Z" style="fill:#d04c4b;fill-rule:nonzero;"/><path d="M3939.38,4474.79l-16.75,-29.166l1268.54,-728.083l16.791,29.166l-1268.58,728.083Z" style="fill:#d04c4b;fill-rule:nonzero;"/><path d="M3394.71,4789.71l-16.754,-29.167l409.213,-234.875l16.749,29.209l-409.208,234.833Z" style="fill:#d04c4b;fill-rule:nonzero;"/><path d="M2873.36,6973.75l-2851.54,-1646.42l0,-2126.04l0.638,-0.416l2851.6,1646.38l0,2126.08l-0.696,0.417Z" style="fill:#d04c4b;fill-rule:nonzero;"/><path d="M43.667,5314.79l2808.5,1621.46l-0,-2076.54l-2808.5,-1621.33l-0,2076.42Zm2828.91,1684.46l-2872.58,-1659.08l0,-2151.38l21.617,-13.083l2874.21,1658.79l0,2151.96l-23.25,12.792Z" style="fill:#150035;fill-rule:nonzero;"/><rect x="160.879" y="3484.58" width="43.779" height="1345.62" style="fill:#150035;fill-rule:nonzero;"/><path d="M22.463,3200.87l2851.6,1646.38l2684.73,-1551.75l-0,-0.792l-2851.59,-1645.31l-2684.74,1550.69l-0,0.792Z" style="fill:#fff;fill-rule:nonzero;"/><path d="M65.529,3200.46l2808.69,1621.58l2641.57,-1526.96l-2808.58,-1620.57l-2641.68,1525.94Zm2807.18,1672.79l-11.996,-8.667l-2860.14,-1650.75l-0.233,-26.292l2705.88,-1562.98l2874.57,1657.48l-0,25.334l-2708.08,1565.88Z" style="fill:#150035;fill-rule:nonzero;"/><path d="M5134.67,3315.29l-2427.69,-1400.59l-2224.43,1285.13l-21.892,-37.875l2246.33,-1297.78l2449.6,1413.23l-21.917,37.875Z" style="fill:#150035;fill-rule:nonzero;"/><path d="M3856.58,4106.79l-21.625,-38.041l1100.46,-626.042l21.583,38.042l-1100.42,626.041Z" style="fill:#150035;fill-rule:nonzero;"/><path d="M1994.98,3113.08l1049.02,605.666c138.291,79.834 379.841,69.792 539.508,-22.374c159.708,-92.209 177.042,-231.667 38.75,-311.501l-1049.02,-605.653c-138.287,-79.842 -379.837,-69.83 -539.525,22.366c-159.679,92.192 -177.021,231.662 -38.733,311.496Z" style="fill:#d04c4b;fill-rule:nonzero;"/><path d="M2537.01,2785.19c-53.116,-24.216 -119.77,-37.345 -192.816,-37.962l0.4,-43.754c79.112,0.675 151.921,15.154 210.562,41.908l-18.146,39.808Zm-481.67,29.367l-20.842,-38.487c58.742,-31.767 129.117,-54.321 203.533,-65.217l6.308,43.287c-69.354,10.159 -134.733,31.05 -188.999,60.417Zm749.533,123.671l-179.342,-103.533l21.888,-37.9l179.341,103.537l-21.887,37.896Zm-904.55,114.767c-13.671,-23.667 -20.609,-48.958 -20.609,-75.221c-0.033,-47.708 22.813,-95.375 66.067,-137.805l30.642,31.226c-34.654,34.021 -52.959,70.858 -52.925,106.562c-0,18.488 4.929,36.446 14.691,53.363l-37.866,21.875Zm1173.58,40.541l-179.371,-103.537l21.888,-37.9l179.379,103.562l-21.896,37.875Zm-910.521,142l-179.341,-103.541l20.604,-38.625l180.625,104.291l-21.888,37.875Zm1179.53,13.333l-179.342,-103.541l21.896,-37.917l179.321,103.542l-21.875,37.916Zm-910.534,142.001l-179.337,-103.542l21.896,-37.875l179.333,103.542l-21.892,37.875Zm1179.45,13.249l11.042,-18.874l-11.5,18.625l-178.796,-103.25l21.879,-37.875l178.709,103.166l-21.334,38.208Zm-910.408,142.084l-179.337,-103.542l21.891,-37.916l179.333,103.541l-21.887,37.917Zm970.575,111.208l-30.75,-31.125c34.333,-33.916 52.5,-70.583 52.458,-106.124c0,-18.668 -5.041,-36.792 -15.041,-53.876l37.833,-22.042c13.917,23.834 21,49.417 21,75.918c0,47.457 -22.625,94.958 -65.5,137.249Zm-701.571,44.125l-179.337,-103.541l21.891,-37.917l179.338,103.542l-21.892,37.916Zm409.525,85.459l-6.371,-43.292c69.376,-10.25 134.709,-31.209 188.917,-60.625l20.875,38.458c-58.666,31.834 -129,54.5 -203.421,65.459Zm-106.371,7.5c-79.05,-0.584 -152.05,-14.958 -210.821,-41.625l18.076,-39.834c53.22,24.125 119.779,37.167 192.745,37.709l0,43.75Z" style="fill:#150035;fill-rule:nonzero;"/><path d="M2167.84,3078l936.879,540.916c82.433,47.584 226.408,41.625 321.575,-13.333c95.166,-54.917 105.5,-138.083 23.083,-185.667l-936.871,-540.887c-82.421,-47.592 -226.396,-41.625 -321.579,13.325c-95.175,54.946 -105.508,138.062 -23.087,185.646Z" style="fill:#2a2629;fill-rule:nonzero;"/><rect x="2400.6" y="2918.93" width="43.779" height="201.945" style="fill:#d04c4b;fill-rule:nonzero;"/><rect x="2668.85" y="3037.96" width="43.779" height="119.084" style="fill:#d04c4b;fill-rule:nonzero;"/><rect x="3313.88" y="3417.75" width="43.746" height="164.042" style="fill:#d04c4b;fill-rule:nonzero;"/><path d="M3237.54,488.644c-1.346,-16.091 -3.284,-31.679 -5.479,-47.025l151.187,-143.246c4.333,-4.083 3.459,-11.183 -1.671,-14.137l-383.596,-220.137c-118.387,-60.5 -271.766,-58.363 -441.175,18.046c-464.862,209.666 -858.141,855.541 -858.141,1380.42c-0,241.896 83.65,412.825 219.212,495.033c0,0 333.338,191.571 389.342,223.717c4.466,2.571 9.983,0.692 12.221,-3.95l77.454,-160.621l-73.158,-40.758c47.333,-16.841 96.133,-39.329 146.112,-68.183c12.171,-7.033 24.267,-14.429 36.308,-22.025c39.175,77.683 39.667,213.395 26.788,345.658c-2.734,28.029 7.15,43.433 22.241,47.588l361.363,208.558c4.754,2.745 10.833,0.558 12.75,-4.579l37.546,-100.455l-17.204,-430.329l-195.371,0l360.891,-819.967c91.967,-215.095 139.588,-441.212 122.38,-643.604Z" style="fill:#d04c4b;fill-rule:nonzero;"/><path d="M2514.82,1854.42l10.846,21.492c35.533,70.429 45.296,190.746 29.029,357.642c-0.988,10.175 0.067,22.667 6.279,24.354l5.158,2.158l348.059,200.888l30.633,-81.933l-16.2,-404.925l-207.875,-0l374.392,-850.654c95.125,-222.626 136.875,-441.576 120.629,-632.926c-1.346,-15.675 -3.25,-30.866 -5.35,-45.841l-1.584,-11.171l146.659,-138.996l-368.038,-211.238c-116.387,-59.421 -262.4,-53.049 -421.654,18.805c-450.279,203.121 -845.246,838.854 -845.246,1360.49c0,225.55 74.092,394.721 208.659,476.329c7.72,4.621 296.521,170.43 376.587,216.383l62.417,-129.454l-97.325,-54.246l45.521,-16.191c47.237,-16.837 95.162,-39.2 142.495,-66.538c11.896,-6.883 23.767,-14.133 35.563,-21.575l20.346,-12.85Zm406.142,656.226c-5.326,-0 -10.646,-1.396 -15.384,-4.142l-359.304,-207.375c-12.613,-4.471 -39.967,-20.005 -35.1,-69.813c13.542,-139.304 8.283,-246.096 -15.15,-311.558c-5.063,3.042 -10.129,6.05 -15.221,8.975c-35.042,20.25 -70.475,37.912 -105.779,52.788l50.525,28.154l-86.388,179.183c-3.741,7.729 -10.545,13.596 -18.666,16.116c-8.083,2.522 -16.863,1.488 -24.154,-2.683c-25.079,-14.383 -384.063,-220.458 -387.309,-222.416c-150.645,-91.421 -232.258,-273.863 -232.258,-515.313c0,-536.7 407.029,-1191.08 871.017,-1400.36c169.408,-76.375 332.804,-82.633 460.141,-17.584c0.563,0.28 20.575,11.271 29.788,17.055l354.733,203.583c8.375,4.796 14.046,13.392 15.208,22.992c1.171,9.6 -2.329,19.312 -9.329,25.987l-143.041,135.534c1.583,12.12 3,24.408 4.083,37c16.833,198.512 -26.083,424.695 -124.133,654.041l-347.438,789.538l182.821,-0l18.25,455.737l-39.083,104.575c-3.225,8.563 -9.963,15.154 -18.509,18.192c-3.354,1.204 -6.837,1.792 -10.32,1.792Z" style="fill:#150035;fill-rule:nonzero;"/><path d="M3093.55,1184l21.692,-49.296c91.971,-215.096 139.591,-441.204 122.425,-643.6c-1.388,-16.092 -3.325,-31.684 -5.517,-47.03l151.183,-143.241c4.334,-4.088 3.454,-11.184 -1.666,-14.146l-383.6,-220.129c-118.396,-60.5 -271.767,-58.363 -441.184,18.041c-201.854,91.05 -390.15,264.4 -538.675,474.317l1075.34,625.084Z" style="fill:#fff;fill-rule:nonzero;"/><path d="M2050.01,552.099l1033.4,600.691l11.663,-26.72c95.262,-222.788 137.004,-441.721 120.767,-633.109c-1.317,-15.691 -3.221,-30.845 -5.355,-45.783l-1.612,-11.208l146.708,-138.996l-368.021,-211.238c-116.391,-59.462 -262.371,-53.058 -421.654,18.8c-183.154,82.604 -365.642,241.067 -515.892,447.563Zm1053.71,663.112l-1117.22,-649.404l13.834,-19.529c157.25,-222.25 351.712,-393.305 547.55,-481.613c169.408,-76.404 332.837,-82.666 460.141,-17.579c0.563,0.296 20.546,11.275 29.75,17.038l354.713,203.579c8.421,4.816 14.125,13.425 15.296,23.062c1.125,9.596 -2.375,19.292 -9.375,25.951l-143.084,135.504c1.625,12.133 3.042,24.437 4.084,37.058c16.416,193 -23.729,412.154 -116.117,634.983l-39.575,90.95Z" style="fill:#150035;fill-rule:nonzero;"/><path d="M3489.58,1347.64c92,-215.092 139.584,-441.204 122.417,-643.595c-33.666,-396.484 -321.125,-568.709 -680.754,-406.509c-464.859,209.675 -858.134,855.542 -858.134,1380.42c0,491.799 345.267,691.137 771.176,445.237c12.175,-7.033 24.262,-14.425 36.304,-22.025c39.175,77.692 39.675,213.4 26.791,345.655c-7.137,73.266 71.604,60.987 105.559,-16.159l476.641,-1083.02Z" style="fill:#2a2629;fill-rule:nonzero;"/><path d="M2889.28,2069.82l10.85,21.517c35.529,70.438 45.288,190.754 29.017,357.6c-0.984,10.275 0.066,22.863 6.35,24.492c10.612,2.875 39.904,-11.738 57.421,-51.575l476.5,-1082.85c95.25,-222.774 137,-441.699 120.791,-633.124c-15.791,-185.888 -90.291,-326.934 -209.833,-397.151c-117.833,-69.204 -274.092,-66.112 -440.117,8.746c-450.283,203.104 -845.254,838.842 -845.254,1360.48c0,229.717 76.329,400.292 214.946,480.308c138.546,80.075 324.488,60.867 523.383,-54.016c11.963,-6.892 23.796,-14.134 35.596,-21.575l20.35,-12.855Zm49.338,447.75c-4.838,0 -9.567,-0.591 -14.204,-1.808c-10.45,-2.725 -44.175,-15.942 -38.788,-71.062c13.542,-139.255 8.288,-246.063 -15.15,-311.559c-5.063,3.054 -10.158,6.063 -15.254,9.004c-213.029,123 -414.454,142.163 -567.163,54.025c-152.72,-88.17 -236.833,-272.208 -236.833,-518.212c0,-536.696 407.025,-1191.09 871.021,-1400.35c179.337,-80.859 349.879,-83.229 480.296,-6.608c132.083,77.625 214.25,230.75 231.25,431.187c16.375,193.05 -23.75,412.225 -116.125,635.012l-484.721,1102.28c-20.704,47.054 -59.254,78.1 -94.329,78.1Z" style="fill:#150035;fill-rule:nonzero;"/><path d="M1708.5,1566.02l374.438,215.395l-374.438,-215.395Z" style="fill:#39a1ff;fill-rule:nonzero;"/><path d="M2072.03,1800.38l-374.454,-215.404l21.825,-37.93l374.45,215.397l-21.821,37.937Z" style="fill:#150035;fill-rule:nonzero;"/><path d="M2585.11,74.591l374.446,215.391l-374.446,-215.391Z" style="fill:#39a1ff;fill-rule:nonzero;"/><path d="M2948.64,308.94l-374.45,-215.379l21.826,-37.933l374.454,215.379l-21.83,37.933Z" style="fill:#150035;fill-rule:nonzero;"/><path d="M2757.95,1091.22c-55.75,0.125 -109.904,35.437 -156.35,102.15c-125.888,180.783 -90.392,295.466 -39.079,383.8c38.125,65.65 175.325,158.862 294.316,226.208c51.217,-86.604 267.071,-457.825 314.959,-595.546c31.616,-90.954 69.583,-219.637 34.35,-287.154c-11.934,-22.904 -31.78,-37.996 -60.713,-46.138c-94.696,-26.945 -224.267,164.526 -258.221,252.134l-4.375,11.275l-24.883,3.629l-7.167,-10.517c-10.679,-15.183 -45.704,-39.841 -92.837,-39.841Zm101.187,755.891c-4.47,0 -8.908,-1.108 -13.079,-3.429c-78.096,-43.704 -265.587,-155.217 -318.441,-246.233c-54.342,-93.529 -98.809,-226.6 40.854,-427.154c68.6,-98.55 140.979,-119.354 189.429,-119.467c42.308,0 79.058,15.363 103.475,34.263c46.808,-98.046 171.908,-283.942 295.042,-249.43c39.641,11.175 68.433,33.492 85.545,66.325c32.75,62.8 22.875,161.217 -32.037,319.109c-49.992,143.821 -274.663,529.204 -319.167,604.979c-7.883,13.45 -19.883,21.037 -31.621,21.037Z" style="fill:#2a2629;fill-rule:nonzero;"/><path d="M3250.06,919.133l-38.196,-13.066c7.3,-21.492 23.4,-88.796 2.271,-115.158c-2.829,-3.501 -11.379,-14.15 -40.034,-10.946l-4.408,-40.138c41.842,-4.679 64.458,11.508 75.958,25.85c38.792,48.392 8.063,142.842 4.409,153.458Z" style="fill:#fff;fill-rule:nonzero;"/><path d="M2750.71,1893.21c-2.721,-1.366 -67.575,-33.887 -134.633,-85.3l24.587,-32.05c63.8,48.946 127.438,80.879 128.063,81.192l-18.017,36.158Z" style="fill:#fff;fill-rule:nonzero;"/><g><path d="M2655.53,1178.34c10.477,-39.641 49.948,-96.412 111.278,-117.394c52.723,-18.036 96.017,-0.396 111.845,45.871c22.822,66.71 -29.42,100.207 -87.522,120.084l-61.33,20.981l71.778,209.814l148.484,-50.797l-37.546,-109.749c89.617,-36.668 168.899,-107.059 121.047,-246.935c-46.012,-134.496 -169.861,-197.894 -322.649,-145.624c-112.977,38.65 -194.298,124.161 -206.162,215.958l150.777,57.791Zm176.459,442.026c18.405,53.798 76.536,83.189 131.41,64.417c53.799,-18.405 81.746,-77.244 63.341,-131.042c-18.405,-53.799 -76.536,-83.19 -130.334,-64.785c-54.875,18.773 -82.822,77.611 -64.417,131.41Z" style="fill:#ffdfa3;fill-rule:nonzero;"/></g></g></g></svg>