<?xml version="1.0" encoding="UTF-8" standalone="no"?><svg width="600" height="600" viewBox="0 0 600 600" fill="none" xmlns="http://www.w3.org/2000/svg">
<mask id="mask0_605_1553" style="mask-type:luminance" maskUnits="userSpaceOnUse" x="329" y="299" width="244" height="244">
<path d="M572.316 420.658C572.316 487.843 517.843 542.316 450.658 542.316C383.47 542.316 329 487.843 329 420.658C329 353.47 383.47 299 450.658 299C517.843 299 572.316 353.47 572.316 420.658Z" fill="white"/>
</mask>
<g mask="url(#mask0_605_1553)">
<path d="M312.504 348.865H377.342V284.027H312.504V348.865ZM382.984 354.51H306.86V278.386H382.984V354.51Z" fill="#C15550"/>
<path d="M382.983 348.865H447.821V284.027H382.983V348.865ZM453.478 354.51H377.342V278.386H453.478V354.51Z" fill="#C15550"/>
<path d="M453.484 348.865H518.321V284.027H453.484V348.865ZM523.962 354.51H447.827V278.386H523.962V354.51Z" fill="#C15550"/>
<path d="M523.963 348.865H588.789V284.027H523.963V348.865ZM594.445 354.51H518.321V278.386H594.445V354.51Z" fill="#C15550"/>
<path d="M312.504 419.348H377.342V354.51H312.504V419.348ZM382.984 424.99H306.86V348.866H382.984V424.99Z" fill="#C15550"/>
<path d="M382.983 419.348H447.821V354.51H382.983V419.348ZM453.478 424.99H377.342V348.866H453.478V424.99Z" fill="#C15550"/>
<path d="M453.484 419.348H518.321V354.51H453.484V419.348ZM523.962 424.99H447.827V348.866H523.962V424.99Z" fill="#C15550"/>
<path d="M523.963 419.348H588.789V354.51H523.963V419.348ZM594.445 424.99H518.321V348.866H594.445V424.99Z" fill="#C15550"/>
<path d="M312.504 489.826H377.342V424.989H312.504V489.826ZM382.984 495.472H306.86V419.348H382.984V495.472Z" fill="#C15550"/>
<path d="M382.983 489.826H447.821V424.989H382.983V489.826ZM453.478 495.472H377.342V419.348H453.478V495.472Z" fill="#C15550"/>
<path d="M453.484 489.826H518.321V424.989H453.484V489.826ZM523.962 495.472H447.827V419.348H523.962V495.472Z" fill="#C15550"/>
<path d="M523.963 489.826H588.789V424.989H523.963V489.826ZM594.445 495.472H518.321V419.348H594.445V495.472Z" fill="#C15550"/>
<path d="M312.504 560.308H377.342V495.471H312.504V560.308ZM382.984 565.965H306.86V489.826H382.984V565.965Z" fill="#C15550"/>
<path d="M382.983 560.308H447.821V495.471H382.983V560.308ZM453.478 565.965H377.342V489.826H453.478V565.965Z" fill="#C15550"/>
<path d="M453.484 560.308H518.321V495.471H453.484V560.308ZM523.962 565.965H447.827V489.826H523.962V565.965Z" fill="#C15550"/>
<path d="M523.963 560.308H588.789V495.471H523.963V560.308ZM594.445 565.965H518.321V489.826H594.445V565.965Z" fill="#C15550"/>
</g>
<path fill-rule="evenodd" clip-rule="evenodd" d="M470.577 216.631L339.052 194.892V348.849L461.446 373.721L470.577 216.631Z" fill="#FFE0A3"/>
<path d="M470.802 216.451C469.229 266.437 467.147 324.053 464.388 373.89L464.206 377.268L460.859 376.607C424.637 369.536 373.387 358.3 336.77 350.69L336.781 348.849L337.715 194.894L337.726 193.305L339.271 193.573L470.802 216.451ZM470.351 216.811L338.835 196.213L340.391 194.894L341.326 348.849L339.506 346.623C375.682 353.631 426.467 363.485 462.034 370.831L458.505 373.549C461.178 329.34 466.61 261.525 470.351 216.811Z" fill="black"/>
<path fill-rule="evenodd" clip-rule="evenodd" d="M29.1211 227.418V379.843L339.053 339.113V194.892L29.1211 227.418Z" fill="#FFE0A3"/>
<path d="M28.9068 227.225C74.7231 221.906 137.786 214.031 183.011 209.041L260.767 200.246C287.844 197.36 314.914 194.309 342.019 191.631L342.004 194.891L341.384 339.112L341.373 341.167L339.356 341.423L29.2591 380.885L28.062 381.038L28.068 379.843L28.9068 227.225ZM29.3366 227.61L30.1733 379.843C23.0931 377.593 340.277 337.582 338.748 336.802L336.723 339.112L336.103 194.891L339.361 197.827C313.715 200.653 288.039 203.148 262.372 205.802C193.215 212.608 98.5571 221.426 29.3366 227.61Z" fill="black"/>
<path fill-rule="evenodd" clip-rule="evenodd" d="M141.5 247.502L30.931 227.817L29.1216 379.842L139.667 447.144L141.5 247.502Z" fill="#FFE0A3"/>
<path d="M141.722 247.317C142.186 279.592 142.72 314.288 142.823 346.525L142.982 396.769C142.869 415.288 142.894 433.851 142.525 452.374L138.135 449.661L28.0295 381.636L27 380.999L27.0211 379.816L29.7801 227.805L29.8052 226.436L31.1321 226.683L141.722 247.317ZM141.277 247.686L30.7295 228.951L32.0821 227.832L31.2201 379.867L30.2138 378.049L141.2 444.626L136.722 447.116C137.116 381.892 139.141 312.906 141.277 247.686Z" fill="black"/>
<path fill-rule="evenodd" clip-rule="evenodd" d="M153.547 249.597L141.5 247.502L145.062 449.869L153.547 447.259V249.597Z" fill="#FFE0A3"/>
<path d="M153.767 249.41C156.134 315.664 157.019 382.695 155.994 449.109C154.815 449.509 147.09 451.67 145.75 452.103L142.754 452.977L142.725 449.909C142.198 399.198 141.368 297.696 141.077 246.991C141.075 246.991 141.573 247.087 141.573 247.087L153.767 249.41ZM153.325 249.781L141.429 247.916L141.922 247.494C143.406 297.927 146.15 399.403 147.4 449.828L144.374 447.634L152.822 444.903L151.081 447.257C150.031 381.255 151.088 315.882 153.325 249.781Z" fill="black"/>
<path fill-rule="evenodd" clip-rule="evenodd" d="M470.859 216.77L456.692 217.325L457.017 380.484C457.021 381.998 458.416 383.124 459.898 382.807L470.859 380.465V216.77Z" fill="#FFE0A3"/>
<path d="M471.059 216.562C472.558 256.858 473.839 298.489 473.741 338.978C473.713 353.518 473.474 368.03 473.323 382.507C472.256 382.763 461.788 384.795 460.434 385.097C456.723 385.772 454.289 382.79 454.729 379.19C454.987 336.169 455.741 261.028 456.219 217.327L456.224 216.863L456.672 216.855L471.059 216.562ZM470.659 216.977L456.71 217.799L457.163 217.325C457.8 258.667 458.811 332.993 459.237 373.599L459.301 379.18L459.323 380.484C459.329 380.507 459.331 380.505 459.346 380.514C459.402 380.534 459.346 380.53 459.452 380.501L470.34 378.033L468.371 380.465C467.291 325.889 468.646 271.626 470.659 216.977Z" fill="black"/>
<path fill-rule="evenodd" clip-rule="evenodd" d="M104.633 240.938L63.96 233.696V84.3642C63.96 73.1328 73.0654 64.0298 84.2969 64.0298C95.5278 64.0298 104.633 73.1328 104.633 84.3642V240.938Z" fill="#FFE0A3"/>
<path d="M104.448 240.717C103.108 193.197 101.596 148.603 101.691 102.004C101.703 98.3478 101.768 88.4961 101.796 84.9316C102.221 76.4027 95.9335 68.369 87.451 66.855C80.792 65.4632 73.4899 68.369 69.5334 74.0046C64.9379 80.0654 66.3447 87.8374 66.0534 95.0308C65.8476 124.416 65.0325 203.325 64.7134 233.698L64.093 232.956L104.448 240.717ZM104.819 241.16L63.8289 234.438L63.2145 234.337L63.2084 233.698C62.8854 202.926 62.0738 124.745 61.8665 95.0308C61.8916 87.1078 60.6629 78.2061 65.7933 71.371C76.6639 55.452 101.703 59.8628 106.637 78.5206C107.787 82.0826 107.402 87.131 107.513 90.8082C107.936 140.476 106.314 192.364 104.819 241.16Z" fill="black"/>
<path fill-rule="evenodd" clip-rule="evenodd" d="M392.613 203.745L352.933 197.186L350.817 79.8291C350.817 68.5957 359.923 59.4922 371.154 59.4922C382.386 59.4922 391.489 68.5957 391.489 79.8291L392.613 203.745Z" fill="#FFE0A3"/>
<path d="M392.425 203.525C390.984 170.448 389.542 139.802 388.867 107.844C388.777 101.611 388.588 95.3742 388.611 89.1449C388.423 84.2369 389.352 76.2993 386.758 71.8693C381.934 61.3112 366.692 58.7218 358.525 66.9905C354.192 71.0833 352.586 76.8467 352.997 82.7465L353.303 120.885L353.76 197.171L353.068 196.372L392.425 203.525ZM392.8 203.964L352.8 198.001L352.129 197.902L352.108 197.202L349.812 120.927L348.743 82.7862C348.091 75.9682 350.221 68.5649 355.269 63.6801C369.474 49.3607 394.238 59.6109 394.385 79.7546C395.171 120.699 393.915 163.877 392.8 203.964Z" fill="black"/>
<path fill-rule="evenodd" clip-rule="evenodd" d="M361.788 106.202L105.295 115.171L104.262 85.5907L360.754 76.6216C368.922 76.3343 375.776 82.7247 376.061 90.8952C376.346 99.0633 369.956 105.917 361.788 106.202Z" fill="#FFE0A3"/>
<path d="M361.778 105.914C381.1 104.362 379.498 76.3144 359.905 77.589C325.4 79.5534 290.327 81.8494 255.836 83.1888C213.479 84.9419 147.175 86.6633 104.34 87.8477L106.518 85.512L107.38 115.099L105.223 113.088L169.359 111.222C229.008 109.319 302.474 108.189 361.778 105.914ZM361.799 106.49C302.604 108.379 228.994 112.352 169.478 114.635L105.369 117.254L103.298 117.34L103.212 115.244L102.005 85.6695L101.912 83.4278L104.183 83.3317C147.219 81.5475 213.094 78.5827 255.633 77.3963C290.125 76.3205 325.295 76.1675 359.838 75.7146C380.561 75.0625 382.704 104.88 361.799 106.49Z" fill="black"/>
<path fill-rule="evenodd" clip-rule="evenodd" d="M89.2977 100.039C89.2977 107.702 85.1107 113.916 79.9471 113.916C74.783 113.916 70.5986 107.702 70.5986 100.039C70.5986 92.3758 74.783 86.1616 79.9471 86.1616C85.1107 86.1616 89.2977 92.3758 89.2977 100.039Z" fill="black"/>
<path fill-rule="evenodd" clip-rule="evenodd" d="M245.718 142.586L258.117 250.88L293.425 243.915L278.957 133.212L245.718 142.586Z" fill="#D04C4A" stroke="black" stroke-width="1.19756" stroke-miterlimit="10"/>
<path fill-rule="evenodd" clip-rule="evenodd" d="M237.766 138.175L251.362 250.335L258.117 250.88L245.718 142.587L237.766 138.175Z" fill="#D04C4A" stroke="black" stroke-width="1.19756" stroke-miterlimit="10"/>
<path fill-rule="evenodd" clip-rule="evenodd" d="M273.083 85.9976L274.872 103.752C275.721 112.165 269.586 119.675 261.173 120.522L255.761 121.067C247.348 121.914 239.838 115.782 238.991 107.368L237.203 89.6144C227.867 96.6755 222.328 108.293 223.588 120.792C225.508 139.863 242.526 153.763 261.596 151.843C280.665 149.92 294.567 132.904 292.647 113.834C291.386 101.334 283.642 91.057 273.083 85.9976Z" fill="#D04C4A" stroke="black" stroke-width="1.04158" stroke-miterlimit="10"/>
<path fill-rule="evenodd" clip-rule="evenodd" d="M342.103 185.372L460.693 104.56L487.997 144.047L302.92 279.597L342.103 185.372Z" fill="black"/>
<path d="M445.218 115.404C447.657 117.245 449.542 119.759 450.604 122.625C448.16 120.788 446.288 118.266 445.218 115.404Z" fill="#FFE0A3"/>
<path d="M432.441 124.297C434.882 126.137 436.765 128.651 437.827 131.517C435.383 129.681 433.511 127.159 432.441 124.297Z" fill="#FFE0A3"/>
<path d="M418.613 133.933C421.051 135.774 422.936 138.288 423.999 141.153C421.554 139.317 419.682 136.795 418.613 133.933Z" fill="#FFE0A3"/>
<path d="M405.836 142.825C408.276 144.666 410.159 147.18 411.222 150.046C408.778 148.209 406.905 145.687 405.836 142.825Z" fill="#FFE0A3"/>
<path d="M393.411 150.744C395.852 152.584 397.734 155.098 398.797 157.964C396.353 156.128 394.48 153.605 393.411 150.744Z" fill="#FFE0A3"/>
<path d="M380.635 159.636C383.074 161.477 384.959 163.99 386.021 166.856C383.577 165.02 381.705 162.498 380.635 159.636Z" fill="#FFE0A3"/>
<path d="M369.007 168.992C371.447 170.832 373.33 173.346 374.393 176.212C371.948 174.376 370.076 171.853 369.007 168.992Z" fill="#FFE0A3"/>
<path d="M356.231 177.884C358.669 179.725 360.554 182.239 361.617 185.105C359.173 183.268 357.3 180.746 356.231 177.884Z" fill="#FFE0A3"/>
<path d="M342.174 186.742C344.612 188.582 346.497 191.096 347.56 193.962C345.115 192.126 343.243 189.603 342.174 186.742Z" fill="#FFE0A3"/>
<path fill-rule="evenodd" clip-rule="evenodd" d="M332.489 144.046L289.755 244.285H311.121L351.012 149.765L332.489 144.046Z" fill="#D04C4B"/>
<path d="M332.436 143.932C338.755 145.728 345.32 147.435 351.879 149.341C345.458 165.453 338.935 181.523 332.252 197.524C325.59 213.525 318.645 229.405 311.805 245.33L311.122 245.326L289.754 245.192L288.375 245.183L288.921 243.929L332.436 143.932ZM332.543 144.16L290.589 244.64L289.754 243.38L311.122 243.244L310.162 243.882C316.709 228.084 323.157 212.246 329.882 196.526C336.589 180.796 343.449 165.132 350.414 149.513L350.821 150.383L332.543 144.16Z" fill="black"/>
<path fill-rule="evenodd" clip-rule="evenodd" d="M320.383 238.944L356.23 150.529L347.279 148.613L311.122 244.286L320.383 238.944Z" fill="#D04C4B"/>
<path d="M320.478 239.027L311.36 244.7L310.226 245.406C313.165 236.919 316.128 228.439 319.197 220.003C327.56 196.523 337.592 170.832 346.671 147.474C347.985 147.763 356.218 149.589 357.497 149.87C357.495 149.87 357.08 150.872 357.08 150.872L320.478 239.027ZM320.287 238.861L355.382 150.184L356.04 151.424L347.075 149.57L348.195 148.96L339.36 172.956C333.517 188.971 327.399 204.88 321.124 220.732C318.012 228.667 314.805 236.565 311.57 244.454L310.882 243.87L320.287 238.861Z" fill="black"/>
<path fill-rule="evenodd" clip-rule="evenodd" d="M368.259 130.186C364.73 142.023 354.166 149.323 344.658 146.489C335.15 143.657 330.303 131.763 333.831 119.925C337.358 108.088 347.924 100.79 357.432 103.622C366.94 106.455 371.788 118.349 368.259 130.186ZM360.638 92.6723C346.31 88.4013 330.384 99.4023 325.068 117.244C319.751 135.084 327.057 153.007 341.385 157.278C355.713 161.547 371.639 150.546 376.956 132.706C382.272 114.866 374.966 96.9407 360.638 92.6723Z" fill="#D04C4B"/>
<path d="M360.674 92.5503C372.704 95.9513 379.518 108.939 379.703 120.902C379.992 133.222 374.535 145.709 364.631 153.269C349.978 164.798 330.198 158.865 324.531 141.057C316.371 118.798 334.853 86.1791 360.674 92.5503ZM360.603 92.7918C335.308 86.4518 317.883 119.183 326.081 140.518C331.58 156.915 349.669 162.297 363.106 151.29C381.015 137.822 384.768 101.597 360.603 92.7918Z" fill="black"/>
<path d="M368.138 130.15C373.109 114.246 359.029 96.4688 343.275 107.929C331.209 116.436 329.131 140.205 344.837 145.885C355.301 149.179 365.515 139.926 368.138 130.15ZM368.379 130.221C365.463 140.228 355.708 150.032 344.476 147.094C324.213 140.056 330.035 106.83 349.282 102.201C365.721 98.5696 373.025 116.977 368.379 130.221Z" fill="black"/>
<path fill-rule="evenodd" clip-rule="evenodd" d="M106.784 162.065L126.207 183.709C129.44 182.721 135.445 180.419 141.191 175.051C147.061 169.567 149.773 163.581 150.957 160.401C142.441 153.918 133.925 147.436 125.408 140.953L106.784 162.065Z" fill="#FFE0A3" stroke="black" stroke-width="0.704447" stroke-miterlimit="10"/>
<path fill-rule="evenodd" clip-rule="evenodd" d="M128.871 183.708L290.357 349.19C291.795 349.192 299.124 349.054 305.008 343.196C311.606 336.625 311.096 328.12 310.999 326.88L148.712 165.323L128.871 183.708Z" fill="#D04C4A" stroke="black" stroke-width="0.945972" stroke-miterlimit="10"/>
<path fill-rule="evenodd" clip-rule="evenodd" d="M166.525 211.726L286.195 338.617C286.966 338.942 294.178 341.82 301.235 337.621C307.6 333.834 308.917 327.213 309.1 326.213C267.013 282.852 222.585 242.166 180.246 199.092C176.362 195.14 169.938 195.324 166.292 199.497C163.21 203.025 163.31 208.317 166.525 211.726Z" fill="black" stroke="#D04C4A" stroke-width="5.77144" stroke-miterlimit="10"/>
<path fill-rule="evenodd" clip-rule="evenodd" d="M54.6207 163.841L99.2379 117.226L143.41 91.4784L150.958 89.7026L154.287 92.5873L129.871 138.093L83.2555 185.373H75.2635L53.0674 165.395L54.6207 163.841Z" fill="#D04C4A" stroke="black" stroke-width="0.945972" stroke-miterlimit="10"/>
<path fill-rule="evenodd" clip-rule="evenodd" d="M82.5893 183.819L57.8667 160.45L53.0674 165.394L75.264 185.373H83.256L83.9166 184.703L82.5893 183.819Z" fill="black"/>
<path fill-rule="evenodd" clip-rule="evenodd" d="M152.622 91.3662L109.892 116.783L64.2769 162.115" fill="#D04C4A"/>
<path d="M152.622 91.3662L109.892 116.783L64.2769 162.115" stroke="black" stroke-width="0.945972" stroke-miterlimit="10"/>
<path fill-rule="evenodd" clip-rule="evenodd" d="M186.772 210.19L153.546 249.597L241.321 243.89L250.965 233.717L206.47 227.579L186.772 210.19Z" fill="black"/>
<path fill-rule="evenodd" clip-rule="evenodd" d="M251.749 214.454L245.145 221.658C243.542 223.411 241.326 224.48 238.956 224.648L214.745 226.369C211.29 226.614 207.986 224.918 206.172 221.969L203.751 218.027C201.524 214.406 202.04 209.735 205 206.687L220.219 191.023C223.213 187.941 227.926 187.314 231.62 189.505L249.638 200.185C254.712 203.192 255.735 210.106 251.749 214.454ZM271.432 198.262L227.549 169.73C224.872 167.99 221.32 168.498 219.238 170.919L188.385 206.781C186.634 208.815 186.345 211.726 187.659 214.064L199.138 234.493C200.31 236.581 202.553 237.835 204.946 237.743L248.137 236.07C250.028 235.997 251.792 235.084 252.944 233.585L273.011 207.498C275.279 204.548 274.552 200.292 271.432 198.262Z" fill="#D04C4B"/>
<path d="M271.481 198.186C274.886 200.24 275.431 205.3 272.741 208.17L270.49 211.153C267.508 215.174 259.994 225.294 257.128 229.177C255.583 230.984 254.235 233.542 252.432 235.198C250.639 237.025 247.199 236.912 244.849 237.033L237.381 237.402C235.186 237.408 204.714 238.846 203.588 238.545C200.741 238.188 198.705 235.907 197.569 233.421L195.757 230.15L188.508 217.069C187.904 215.939 187.293 214.981 186.694 213.711C185.577 211.182 186.216 207.979 188.122 206.044C194.143 199.091 204.142 187.606 210.184 180.635L215.086 174.989C216.648 173.356 218.382 170.807 220.235 169.423C222.457 167.905 225.558 167.911 227.761 169.402L233.995 173.534C246.062 181.579 259.378 190.349 271.481 198.186ZM271.381 198.339C257.191 189.032 241.683 179.218 227.336 170.058C225.361 168.775 222.646 168.834 220.749 170.18C219.197 171.348 217.226 174.13 215.832 175.631C212.773 179.22 204.45 188.986 201.28 192.703C199.519 194.768 190.728 205.086 189.153 206.932C186.315 209.847 187.809 213.413 189.784 216.352L197.185 229.347C197.789 230.4 199.366 233.182 199.955 234.199C201.538 236.924 204.513 237.044 207.42 236.74C215.562 236.415 240.729 235.415 248.47 235.245C251.962 235.05 253.822 230.947 256.132 228.412L260.801 222.569L270.125 210.872L272.431 207.931C275.066 205.19 274.639 200.414 271.381 198.339Z" fill="black"/>
<path d="M251.682 214.392C255.796 209.998 254.081 202.396 248.558 200.112C243.438 197.326 238.363 194.464 233.306 191.567C229.939 189.141 225.674 188.114 222.121 190.634C220.016 192.257 208.965 203.838 206.771 205.916C201.633 210.306 202.306 215.549 206.042 220.619C207.979 224.651 212.135 226.477 216.468 225.754L220.829 225.479L238.281 224.504C241.185 224.519 243.961 223.122 245.776 220.833L251.682 214.392ZM251.816 214.516L245.913 220.959C244.137 223.28 241.281 224.844 238.308 224.888L220.894 226.391C218.242 226.448 214.701 227.236 212.042 226.703C209.011 226.154 206.409 223.871 205.027 221.242C202.316 217.634 200.377 212.732 202.872 208.436C204.342 205.694 215.59 194.808 217.774 192.238C221.238 187.714 227.222 185.539 232.367 188.871C237.981 192.242 243.541 195.737 249.057 199.27C254.578 201.999 256.259 210.084 251.816 214.516Z" fill="black"/>
<path fill-rule="evenodd" clip-rule="evenodd" d="M153.546 249.596L154.112 433.91L456.692 373.394V220.278L153.546 249.596Z" fill="#FFE0A3"/>
<path d="M153.332 249.403C223.71 241.492 309.619 232.129 380.131 224.858L456.404 217.315L459.683 216.99L459.67 220.28L459.046 373.394L459.037 375.335C458.088 376.197 155.666 434.31 154.343 435.058C154.341 435.056 152.94 435.331 152.94 435.331L152.942 433.914L153.332 249.403ZM153.76 249.791L155.282 433.907C147.206 431.763 457.953 371.895 456.228 371.084C456.23 371.086 454.337 373.394 454.337 373.394L453.712 220.28L456.978 223.244L381.68 230.36C310.997 236.739 224.566 244.031 153.76 249.791Z" fill="black"/>
<path fill-rule="evenodd" clip-rule="evenodd" d="M154.542 449.868C154.542 445.343 155.282 422.749 155.282 422.749L454.245 360.441L455.157 383.629L154.542 449.868Z" fill="#FFE0A3"/>
<path d="M427.342 368.97C417.513 370.97 407.672 372.924 397.831 374.88C378.488 378.723 359.128 382.47 339.71 386.011C300.104 393.236 260.579 400.026 220.767 406.016C209.766 407.673 198.78 409.48 187.78 411.159C182.63 411.943 177.517 412.872 172.38 413.74C167.107 414.629 162.086 414.952 156.966 416.447C155.861 416.77 156.092 417.55 156.889 417.751C163.998 419.564 174.221 418.074 182.379 417.08C192.271 415.877 202.189 414.245 212.056 412.75C232.277 409.685 252.423 405.926 272.584 402.473C312.603 395.62 352.404 387.967 392.101 379.755C402.993 377.501 413.853 375.146 424.705 372.763C430.324 371.528 435.894 370.209 441.469 368.855C446.272 367.687 450.834 366.737 455.052 364.722C455.241 364.632 455.151 364.471 454.95 364.469C446.234 364.437 436.007 367.207 427.342 368.97Z" fill="#2A2529"/>
<path d="M430.757 387.922C420.928 389.922 411.086 391.876 401.245 393.832C381.902 397.675 362.542 401.422 343.124 404.963C303.518 412.188 263.993 418.979 224.181 424.968C213.181 426.625 202.195 428.432 191.194 430.111C186.045 430.895 180.931 431.824 175.795 432.692C170.522 433.581 165.501 433.904 160.381 435.399C159.276 435.722 159.507 436.502 160.303 436.703C167.413 438.517 177.636 437.026 185.794 436.032C195.685 434.829 205.604 433.197 215.47 431.703C235.692 428.638 255.838 424.878 275.999 421.425C316.018 414.572 355.819 406.919 395.516 398.707C406.407 396.453 417.267 394.099 428.119 391.715C433.738 390.48 439.309 389.161 444.883 387.807C449.687 386.639 451.987 385.69 456.205 383.674C456.393 383.582 456.303 383.423 456.1 383.421C447.387 383.389 439.422 386.159 430.757 387.922Z" fill="#2A2529"/>
<path d="M124.994 422.023C121.553 420.356 118.121 418.672 114.689 416.989C107.942 413.68 101.214 410.337 94.5177 406.912C80.8589 399.929 67.3315 392.826 53.9093 385.4C50.2004 383.347 46.4603 381.347 42.7453 379.303C41.0074 378.345 39.2437 377.441 37.4912 376.515C35.6903 375.561 34.1013 374.485 32.1992 373.762C31.7907 373.607 31.6709 373.913 31.8596 374.164C33.5603 376.416 36.9965 378.339 39.6885 379.936C42.9546 381.873 46.3325 383.681 49.662 385.517C56.4841 389.283 63.451 392.807 70.3486 396.434C84.0415 403.634 97.8618 410.523 111.787 417.209C115.607 419.046 119.442 420.84 123.283 422.622C125.27 423.545 127.264 424.43 129.269 425.304C130.996 426.058 132.598 426.824 134.355 427.168C134.432 427.182 134.445 427.109 134.384 427.063C131.772 425.004 128.025 423.492 124.994 422.023Z" fill="#2A2529"/>
</svg>
