<?xml version="1.0" encoding="UTF-8" standalone="no"?><svg width="600" height="600" viewBox="0 0 600 600" fill="none" xmlns="http://www.w3.org/2000/svg">
<mask id="mask0_605_1505" style="mask-type:luminance" maskUnits="userSpaceOnUse" x="78" y="275" width="244" height="244">
<path d="M321.316 396.658C321.316 463.843 266.843 518.316 199.658 518.316C132.47 518.316 78 463.843 78 396.658C78 329.47 132.47 275 199.658 275C266.843 275 321.316 329.47 321.316 396.658Z" fill="white"/>
</mask>
<g mask="url(#mask0_605_1505)">
<path d="M61.5044 324.865H126.342V260.027H61.5044V324.865ZM131.984 330.51H55.8599V254.386H131.984V330.51Z" fill="#C15550"/>
<path d="M131.983 324.865H196.821V260.027H131.983V324.865ZM202.478 330.51H126.342V254.386H202.478V330.51Z" fill="#C15550"/>
<path d="M202.484 324.865H267.321V260.027H202.484V324.865ZM272.962 330.51H196.827V254.386H272.962V330.51Z" fill="#C15550"/>
<path d="M272.963 324.865H337.789V260.027H272.963V324.865ZM343.445 330.51H267.321V254.386H343.445V330.51Z" fill="#C15550"/>
<path d="M61.5044 395.348H126.342V330.51H61.5044V395.348ZM131.984 400.99H55.8599V324.866H131.984V400.99Z" fill="#C15550"/>
<path d="M131.983 395.348H196.821V330.51H131.983V395.348ZM202.478 400.99H126.342V324.866H202.478V400.99Z" fill="#C15550"/>
<path d="M202.484 395.348H267.321V330.51H202.484V395.348ZM272.962 400.99H196.827V324.866H272.962V400.99Z" fill="#C15550"/>
<path d="M272.963 395.348H337.789V330.51H272.963V395.348ZM343.445 400.99H267.321V324.866H343.445V400.99Z" fill="#C15550"/>
<path d="M61.5044 465.826H126.342V400.989H61.5044V465.826ZM131.984 471.472H55.8599V395.348H131.984V471.472Z" fill="#C15550"/>
<path d="M131.983 465.826H196.821V400.989H131.983V465.826ZM202.478 471.472H126.342V395.348H202.478V471.472Z" fill="#C15550"/>
<path d="M202.484 465.826H267.321V400.989H202.484V465.826ZM272.962 471.472H196.827V395.348H272.962V471.472Z" fill="#C15550"/>
<path d="M272.963 465.826H337.789V400.989H272.963V465.826ZM343.445 471.472H267.321V395.348H343.445V471.472Z" fill="#C15550"/>
<path d="M61.5044 536.308H126.342V471.471H61.5044V536.308ZM131.984 541.965H55.8599V465.826H131.984V541.965Z" fill="#C15550"/>
<path d="M131.983 536.308H196.821V471.471H131.983V536.308ZM202.478 541.965H126.342V465.826H202.478V541.965Z" fill="#C15550"/>
<path d="M202.484 536.308H267.321V471.471H202.484V536.308ZM272.962 541.965H196.827V465.826H272.962V541.965Z" fill="#C15550"/>
<path d="M272.963 536.308H337.789V471.471H272.963V536.308ZM343.445 541.965H267.321V465.826H343.445V541.965Z" fill="#C15550"/>
</g>
<g clip-path="url(#clip0_605_1505)">
<path d="M148.75 160.342C155.347 158.559 161.958 156.829 168.567 155.099C181.562 151.699 194.577 148.416 207.661 145.383C234.348 139.196 261.033 133.524 288.02 128.83C295.477 127.532 302.905 126.051 310.357 124.727C313.849 124.107 317.294 123.313 320.764 122.596C324.325 121.86 327.784 121.786 331.164 120.314C331.892 119.995 331.632 119.044 331.05 118.751C325.863 116.131 318.927 117.28 313.366 117.959C306.624 118.784 299.918 120.12 293.23 121.297C279.527 123.708 265.963 126.955 252.351 129.836C225.328 135.551 198.56 142.242 171.938 149.609C164.633 151.629 157.364 153.775 150.105 155.956C146.343 157.084 142.631 158.319 138.918 159.595C135.718 160.694 132.659 161.548 129.976 163.702C129.856 163.799 129.94 164 130.081 164.012C136.159 164.597 142.937 161.913 148.75 160.342Z" fill="#2A2529"/>
<path d="M120.793 418.906C124.892 420.273 340.735 376.558 340.735 376.558L512.402 428.5L320.243 465.353L120.793 418.906Z" fill="#D04C4A"/>
<path d="M120.793 418.906C185.76 434.192 257.238 448.901 319.927 463.706C375.66 452.738 455.479 437.32 511.993 426.363L511.771 430.584C511.871 430.618 337.417 377.667 341.085 378.302C283.856 389.424 191.346 407.639 134.668 417.103C131.012 417.615 124.551 418.877 120.793 418.906ZM120.793 418.906C124.698 418.794 130.657 417.368 134.606 416.75C190.837 405.914 283.852 386.363 340.815 374.722C341.505 374.59 512.389 426.469 513.033 426.416C513.033 426.418 521.566 428.979 521.566 428.979L512.813 430.639C455.703 441.313 376.457 456.715 320.196 467.066C253.608 451.293 187.749 434.487 120.793 418.906Z" fill="black"/>
<path d="M337.319 83.9697L340.734 376.558L519.692 427.104V160.372L337.319 83.9697Z" fill="#FFE0A3"/>
<path d="M337.319 83.9697C391.86 106.619 467.402 136.906 521.169 159.378C521.361 193.151 521.643 259.978 521.637 293.739C521.637 293.737 521.86 427.102 521.86 427.102L521.865 429.973L519.103 429.188L340.224 378.362L338.87 377.977L338.859 376.579C338.06 294.726 337.758 166.728 337.319 83.9697ZM337.319 83.9697C339.055 166.881 341.253 294.6 342.609 376.535L341.245 374.752L520.28 425.018L517.524 427.102L517.749 293.737C517.726 260.514 518.019 193.592 518.211 160.372L519.12 161.739C466.708 139.283 390.508 106.898 337.319 83.9697Z" fill="black"/>
<path d="M120.793 139.242V418.905L340.735 376.557L337.319 83.9683L120.793 139.242Z" fill="#D04C4B"/>
<path d="M120.793 139.242C174.64 125.047 283.039 96.4776 336.942 82.4896L338.815 82L338.847 83.9512L340.021 157.094C340.646 203.48 342.27 328.55 342.899 376.531L342.922 378.343L341.144 378.683L121.13 420.656L119 421.063C119.331 350.222 120.131 210.045 120.793 139.241M120.793 139.242C121.462 208.939 122.255 349.235 122.576 418.905L120.456 417.156L340.325 374.43L338.57 376.582C338.066 327.994 336.796 204.083 336.325 157.138L335.792 83.9872L337.697 85.4488C283.679 99.0171 174.866 125.905 120.793 139.241" fill="black"/>
<path d="M120.793 418.906C124.892 420.273 340.735 376.558 340.735 376.558L512.402 428.5L320.243 465.353L120.793 418.906Z" fill="black"/>
<path d="M148.75 149.272C155.347 147.49 161.958 145.76 168.567 144.03C181.562 140.63 194.577 137.347 207.661 134.314C234.348 128.127 261.033 122.454 288.02 117.761C295.477 116.463 302.905 114.982 310.357 113.658C313.849 113.038 317.294 112.244 320.764 111.527C324.325 110.791 327.784 110.717 331.164 109.245C331.892 108.926 331.632 107.975 331.05 107.681C325.863 105.061 318.927 106.211 313.366 106.89C306.624 107.715 299.918 109.051 293.23 110.228C279.527 112.639 265.963 115.885 252.351 118.767C225.328 124.482 198.56 131.173 171.938 138.539C164.633 140.56 157.364 142.706 150.105 144.887C146.343 146.015 142.631 147.25 138.918 148.525C135.718 149.625 132.659 150.479 129.976 152.633C129.856 152.73 129.94 152.93 130.081 152.943C136.159 153.528 142.937 150.844 148.75 149.272Z" fill="#2A2529"/>
<path d="M312.491 363.471C305.837 365.026 299.171 366.528 292.505 368.03C279.403 370.979 266.28 373.812 253.1 376.394C226.216 381.659 199.352 386.408 172.219 390.171C164.722 391.211 157.248 392.435 149.753 393.502C146.243 394.002 142.773 394.677 139.279 395.274C135.695 395.888 132.235 395.844 128.81 397.198C128.069 397.491 128.297 398.451 128.867 398.763C133.963 401.56 140.935 400.651 146.513 400.162C153.28 399.571 160.028 398.468 166.751 397.521C180.531 395.584 194.198 392.804 207.904 390.395C235.106 385.61 262.089 379.847 288.947 373.4C296.317 371.631 303.658 369.739 310.987 367.809C314.784 366.809 318.539 365.705 322.292 364.558C325.528 363.566 328.616 362.819 331.369 360.759C331.493 360.665 331.415 360.463 331.276 360.446C325.219 359.653 318.355 362.1 312.491 363.471Z" fill="#2A2529"/>
<path d="M133.354 262.39L177.692 227.486C202.993 207.568 236.539 203.552 266.749 216.827L316.596 238.73L278.647 266.873C250.31 287.885 213.883 292.756 180.162 280.04L133.354 262.39Z" fill="#FFE0A3"/>
<path d="M133.354 262.39L180.546 279.614C196.184 285.366 213.151 287.499 229.641 285.449C246.12 283.415 262.066 277.325 275.624 267.763C289.118 257.949 302.503 247.815 315.949 237.856L316.16 239.725L269.24 219.008C253.856 211.85 236.716 208.5 219.827 210.646C207.227 212.209 194.948 216.633 184.29 223.552C176.943 228.319 141.043 256.671 133.354 262.39ZM133.354 262.39L173.289 230.27C179.956 224.815 186.997 219.754 194.88 216.225C218.422 204.95 246.692 206.047 270.04 217.187L317.035 237.734L318.763 238.489L317.247 239.605C303.741 249.526 290.384 259.559 276.757 269.387C262.901 279.049 246.631 285.297 229.835 287.102C213.049 288.982 195.882 286.626 180.175 280.603L133.354 262.39Z" fill="black"/>
<path d="M254.904 237.121C259.758 254.373 249.708 272.293 232.459 277.147C215.207 282.001 197.287 271.951 192.432 254.702C187.577 237.45 197.626 219.53 214.878 214.676C232.129 209.82 250.05 219.87 254.904 237.121Z" fill="black"/>
<path d="M238.981 241.602C241.36 250.059 236.434 258.845 227.978 261.225C219.521 263.604 210.734 258.676 208.355 250.219C205.975 241.762 210.901 232.978 219.358 230.599C227.815 228.219 236.601 233.145 238.981 241.602Z" fill="black"/>
<path fill-rule="evenodd" clip-rule="evenodd" d="M238.981 241.603C236.603 233.151 227.81 228.22 219.359 230.598C210.908 232.976 205.977 241.769 208.355 250.22C210.733 258.672 219.525 263.603 227.976 261.225C236.428 258.847 241.359 250.055 238.981 241.603Z" stroke="#D04C4B" stroke-width="2.18207" stroke-miterlimit="10"/>
<mask id="mask1_605_1505" style="mask-type:luminance" maskUnits="userSpaceOnUse" x="207" y="230" width="32" height="32">
<path d="M207.045 245.912C207.045 254.537 214.038 261.528 222.666 261.528C231.29 261.528 238.282 254.537 238.282 245.912C238.282 237.286 231.29 230.293 222.666 230.293C214.038 230.293 207.045 237.286 207.045 245.912Z" fill="white"/>
</mask>
<g mask="url(#mask1_605_1505)">
<path d="M216.425 239.868H212.205V235.647H216.425V239.868ZM212.519 239.556H216.114V235.961H212.519V239.556Z" fill="#D04C4A"/>
<path d="M220.335 239.868H216.113V235.647H220.335V239.868ZM216.426 239.556H220.02V235.961H216.426V239.556Z" fill="#D04C4A"/>
<path d="M224.241 239.868H220.02V235.647H224.241V239.868ZM220.334 239.556H223.929V235.961H220.334V239.556Z" fill="#D04C4A"/>
<path d="M228.151 239.868H223.929V235.647H228.151V239.868ZM224.242 239.556H227.836V235.961H224.242V239.556Z" fill="#D04C4A"/>
<path d="M216.425 243.777H212.205V239.556H216.425V243.777ZM212.519 243.462H216.114V239.868H212.519V243.462Z" fill="#D04C4A"/>
<path d="M220.335 243.777H216.113V239.556H220.335V243.777ZM216.426 243.462H220.02V239.868H216.426V243.462Z" fill="#D04C4A"/>
<path d="M224.241 243.777H220.02V239.556H224.241V243.777ZM220.334 243.462H223.929V239.868H220.334V243.462Z" fill="#D04C4A"/>
<path d="M228.151 243.777H223.929V239.556H228.151V243.777ZM224.242 243.462H227.836V239.868H224.242V243.462Z" fill="#D04C4A"/>
<path d="M216.425 247.684H212.205V243.462H216.425V247.684ZM212.519 247.371H216.114V243.777H212.519V247.371Z" fill="#D04C4A"/>
<path d="M220.335 247.684H216.113V243.462H220.335V247.684ZM216.426 247.371H220.02V243.777H216.426V247.371Z" fill="#D04C4A"/>
<path d="M224.241 247.684H220.02V243.462H224.241V247.684ZM220.334 247.371H223.929V243.777H220.334V247.371Z" fill="#D04C4A"/>
<path d="M228.151 247.684H223.929V243.462H228.151V247.684ZM224.242 247.371H227.836V243.777H224.242V247.371Z" fill="#D04C4A"/>
<path d="M216.425 251.592H212.205V247.371H216.425V251.592ZM212.519 251.278H216.114V247.683H212.519V251.278Z" fill="#D04C4A"/>
<path d="M220.335 251.592H216.113V247.371H220.335V251.592ZM216.426 251.278H220.02V247.683H216.426V251.278Z" fill="#D04C4A"/>
<path d="M224.241 251.592H220.02V247.371H224.241V251.592ZM220.334 251.278H223.929V247.683H220.334V251.278Z" fill="#D04C4A"/>
<path d="M228.151 251.592H223.929V247.371H228.151V251.592ZM224.242 251.278H227.836V247.683H224.242V251.278Z" fill="#D04C4A"/>
<path d="M216.425 231.985H212.205V227.764H216.425V231.985ZM212.519 231.671H216.114V228.076H212.519V231.671Z" fill="#D04C4A"/>
<path d="M220.335 231.985H216.113V227.764H220.335V231.985ZM216.426 231.671H220.02V228.076H216.426V231.671Z" fill="#D04C4A"/>
<path d="M224.241 231.985H220.02V227.764H224.241V231.985ZM220.334 231.671H223.929V228.076H220.334V231.671Z" fill="#D04C4A"/>
<path d="M228.151 231.985H223.929V227.764H228.151V231.985ZM224.242 231.671H227.836V228.076H224.242V231.671Z" fill="#D04C4A"/>
<path d="M216.425 235.891H212.205V231.67H216.425V235.891ZM212.519 235.579H216.114V231.984H212.519V235.579Z" fill="#D04C4A"/>
<path d="M220.335 235.891H216.113V231.67H220.335V235.891ZM216.426 235.579H220.02V231.984H216.426V235.579Z" fill="#D04C4A"/>
<path d="M224.241 235.891H220.02V231.67H224.241V235.891ZM220.334 235.579H223.929V231.984H220.334V235.579Z" fill="#D04C4A"/>
<path d="M228.151 235.891H223.929V231.67H228.151V235.891ZM224.242 235.579H227.836V231.984H224.242V235.579Z" fill="#D04C4A"/>
<path d="M232.106 239.868H227.885V235.647H232.106V239.868ZM228.199 239.556H231.793V235.961H228.199V239.556Z" fill="#D04C4A"/>
<path d="M236.015 239.868H231.793V235.647H236.015V239.868ZM232.106 239.556H235.7V235.961H232.106V239.556Z" fill="#D04C4A"/>
<path d="M239.922 239.868H235.7V235.647H239.922V239.868ZM236.015 239.556H239.609V235.961H236.015V239.556Z" fill="#D04C4A"/>
<path d="M232.106 243.777H227.885V239.556H232.106V243.777ZM228.199 243.462H231.793V239.868H228.199V243.462Z" fill="#D04C4A"/>
<path d="M236.015 243.777H231.793V239.556H236.015V243.777ZM232.106 243.462H235.7V239.868H232.106V243.462Z" fill="#D04C4A"/>
<path d="M239.922 243.777H235.7V239.556H239.922V243.777ZM236.015 243.462H239.609V239.868H236.015V243.462Z" fill="#D04C4A"/>
<path d="M232.106 247.684H227.885V243.462H232.106V247.684ZM228.199 247.371H231.793V243.777H228.199V247.371Z" fill="#D04C4A"/>
<path d="M236.015 247.684H231.793V243.462H236.015V247.684ZM232.106 247.371H235.7V243.777H232.106V247.371Z" fill="#D04C4A"/>
<path d="M239.922 247.684H235.7V243.462H239.922V247.684ZM236.015 247.371H239.609V243.777H236.015V247.371Z" fill="#D04C4A"/>
<path d="M232.106 251.592H227.885V247.371H232.106V251.592ZM228.199 251.278H231.793V247.683H228.199V251.278Z" fill="#D04C4A"/>
<path d="M236.015 251.592H231.793V247.371H236.015V251.592ZM232.106 251.278H235.7V247.683H232.106V251.278Z" fill="#D04C4A"/>
<path d="M239.922 251.592H235.7V247.371H239.922V251.592ZM236.015 251.278H239.609V247.683H236.015V251.278Z" fill="#D04C4A"/>
<path d="M232.106 231.985H227.885V227.764H232.106V231.985ZM228.199 231.671H231.793V228.076H228.199V231.671Z" fill="#D04C4A"/>
<path d="M236.015 231.985H231.793V227.764H236.015V231.985ZM232.106 231.671H235.7V228.076H232.106V231.671Z" fill="#D04C4A"/>
<path d="M239.922 231.985H235.7V227.764H239.922V231.985ZM236.015 231.671H239.609V228.076H236.015V231.671Z" fill="#D04C4A"/>
<path d="M232.106 235.891H227.885V231.67H232.106V235.891ZM228.199 235.579H231.793V231.984H228.199V235.579Z" fill="#D04C4A"/>
<path d="M236.015 235.891H231.793V231.67H236.015V235.891ZM232.106 235.579H235.7V231.984H232.106V235.579Z" fill="#D04C4A"/>
<path d="M239.922 235.891H235.7V231.67H239.922V235.891ZM236.015 235.579H239.609V231.984H236.015V235.579Z" fill="#D04C4A"/>
<path d="M216.425 255.537H212.205V251.316H216.425V255.537ZM212.519 255.225H216.114V251.631H212.519V255.225Z" fill="#D04C4A"/>
<path d="M220.335 255.537H216.113V251.316H220.335V255.537ZM216.426 255.225H220.02V251.631H216.426V255.225Z" fill="#D04C4A"/>
<path d="M224.241 255.537H220.02V251.316H224.241V255.537ZM220.334 255.225H223.929V251.631H220.334V255.225Z" fill="#D04C4A"/>
<path d="M228.151 255.537H223.929V251.316H228.151V255.537ZM224.242 255.225H227.836V251.631H224.242V255.225Z" fill="#D04C4A"/>
<path d="M216.425 259.444H212.205V255.223H216.425V259.444ZM212.519 259.132H216.114V255.537H212.519V259.132Z" fill="#D04C4A"/>
<path d="M220.335 259.444H216.113V255.223H220.335V259.444ZM216.426 259.132H220.02V255.537H216.426V259.132Z" fill="#D04C4A"/>
<path d="M224.241 259.444H220.02V255.223H224.241V259.444ZM220.334 259.132H223.929V255.537H220.334V259.132Z" fill="#D04C4A"/>
<path d="M228.151 259.444H223.929V255.223H228.151V259.444ZM224.242 259.132H227.836V255.537H224.242V259.132Z" fill="#D04C4A"/>
<path d="M216.425 263.353H212.205V259.132H216.425V263.353ZM212.519 263.039H216.114V259.444H212.519V263.039Z" fill="#D04C4A"/>
<path d="M220.335 263.353H216.113V259.132H220.335V263.353ZM216.426 263.039H220.02V259.444H216.426V263.039Z" fill="#D04C4A"/>
<path d="M224.241 263.353H220.02V259.132H224.241V263.353ZM220.334 263.039H223.929V259.444H220.334V263.039Z" fill="#D04C4A"/>
<path d="M228.151 263.353H223.929V259.132H228.151V263.353ZM224.242 263.039H227.836V259.444H224.242V263.039Z" fill="#D04C4A"/>
<path d="M208.672 239.868H204.45V235.647H208.672V239.868ZM204.763 239.556H208.357V235.961H204.763V239.556Z" fill="#D04C4A"/>
<path d="M212.578 239.868H208.357V235.647H212.578V239.868ZM208.671 239.556H212.266V235.961H208.671V239.556Z" fill="#D04C4A"/>
<path d="M208.672 243.777H204.45V239.556H208.672V243.777ZM204.763 243.462H208.357V239.868H204.763V243.462Z" fill="#D04C4A"/>
<path d="M212.578 243.777H208.357V239.556H212.578V243.777ZM208.671 243.462H212.266V239.868H208.671V243.462Z" fill="#D04C4A"/>
<path d="M208.672 247.684H204.45V243.462H208.672V247.684ZM204.763 247.371H208.357V243.777H204.763V247.371Z" fill="#D04C4A"/>
<path d="M212.578 247.684H208.357V243.462H212.578V247.684ZM208.671 247.371H212.266V243.777H208.671V247.371Z" fill="#D04C4A"/>
<path d="M208.672 251.592H204.45V247.371H208.672V251.592ZM204.763 251.278H208.357V247.683H204.763V251.278Z" fill="#D04C4A"/>
<path d="M212.578 251.592H208.357V247.371H212.578V251.592ZM208.671 251.278H212.266V247.683H208.671V251.278Z" fill="#D04C4A"/>
<path d="M208.672 231.985H204.45V227.764H208.672V231.985ZM204.763 231.671H208.357V228.076H204.763V231.671Z" fill="#D04C4A"/>
<path d="M212.578 231.985H208.357V227.764H212.578V231.985ZM208.671 231.671H212.266V228.076H208.671V231.671Z" fill="#D04C4A"/>
<path d="M208.672 235.891H204.45V231.67H208.672V235.891ZM204.763 235.579H208.357V231.984H204.763V235.579Z" fill="#D04C4A"/>
<path d="M212.578 235.891H208.357V231.67H212.578V235.891ZM208.671 235.579H212.266V231.984H208.671V235.579Z" fill="#D04C4A"/>
<path d="M208.672 255.537H204.45V251.316H208.672V255.537ZM204.763 255.225H208.357V251.631H204.763V255.225Z" fill="#D04C4A"/>
<path d="M212.578 255.537H208.357V251.316H212.578V255.537ZM208.671 255.225H212.266V251.631H208.671V255.225Z" fill="#D04C4A"/>
<path d="M208.672 259.444H204.45V255.223H208.672V259.444ZM204.763 259.132H208.357V255.537H204.763V259.132Z" fill="#D04C4A"/>
<path d="M212.578 259.444H208.357V255.223H212.578V259.444ZM208.671 259.132H212.266V255.537H208.671V259.132Z" fill="#D04C4A"/>
<path d="M208.672 263.353H204.45V259.132H208.672V263.353ZM204.763 263.039H208.357V259.444H204.763V263.039Z" fill="#D04C4A"/>
<path d="M212.578 263.353H208.357V259.132H212.578V263.353ZM208.671 263.039H212.266V259.444H208.671V263.039Z" fill="#D04C4A"/>
<path d="M232.106 255.537H227.885V251.316H232.106V255.537ZM228.199 255.225H231.793V251.631H228.199V255.225Z" fill="#D04C4A"/>
<path d="M236.015 255.537H231.793V251.316H236.015V255.537ZM232.106 255.225H235.7V251.631H232.106V255.225Z" fill="#D04C4A"/>
<path d="M239.922 255.537H235.7V251.316H239.922V255.537ZM236.015 255.225H239.609V251.631H236.015V255.225Z" fill="#D04C4A"/>
<path d="M232.106 259.444H227.885V255.223H232.106V259.444ZM228.199 259.132H231.793V255.537H228.199V259.132Z" fill="#D04C4A"/>
<path d="M236.015 259.444H231.793V255.223H236.015V259.444ZM232.106 259.132H235.7V255.537H232.106V259.132Z" fill="#D04C4A"/>
<path d="M239.922 259.444H235.7V255.223H239.922V259.444ZM236.015 259.132H239.609V255.537H236.015V259.132Z" fill="#D04C4A"/>
<path d="M232.106 263.353H227.885V259.132H232.106V263.353ZM228.199 263.039H231.793V259.444H228.199V263.039Z" fill="#D04C4A"/>
<path d="M236.015 263.353H231.793V259.132H236.015V263.353ZM232.106 263.039H235.7V259.444H232.106V263.039Z" fill="#D04C4A"/>
<path d="M239.922 263.353H235.7V259.132H239.922V263.353ZM236.015 263.039H239.609V259.444H236.015V263.039Z" fill="#D04C4A"/>
</g>
</g>
<defs>
<clipPath id="clip0_605_1505">
<rect width="403" height="385.28" fill="white" transform="translate(119 82)"/>
</clipPath>
</defs>
</svg>
