<?xml version="1.0" encoding="UTF-8" standalone="no"?><svg width="256" height="256" viewBox="0 0 256 256" fill="none" xmlns="http://www.w3.org/2000/svg">
<circle cx="128" cy="128" r="128" fill="#D04C4B"/>
<path d="M17.9842 86.3125L43.6624 169.767C43.9737 170.622 43.6624 171.05 42.7287 171.05C42.2618 171.05 41.9505 170.778 41.7949 170.233L16.1167 86.7793C15.8055 85.9234 16.1167 85.4954 17.0505 85.4954C17.5173 85.4954 17.8286 85.7678 17.9842 86.3125ZM22.1861 86.3125L47.8643 169.767C48.1755 170.622 47.8643 171.05 46.9305 171.05C46.4637 171.05 46.1524 170.778 45.9968 170.233L20.3186 86.7793C20.0074 85.9234 20.3186 85.4954 21.2524 85.4954C21.7192 85.4954 22.0305 85.7678 22.1861 86.3125ZM26.388 86.3125L51.8327 169.767C52.0662 170.622 51.7549 171.05 50.899 171.05C50.4321 171.05 50.1209 170.778 49.9652 170.233L24.5205 86.7793C24.287 85.9234 24.5983 85.4954 25.4542 85.4954C25.9211 85.4954 26.2324 85.7678 26.388 86.3125ZM30.7066 86.3125L56.1513 169.767C56.3848 170.622 56.0735 171.05 55.2176 171.05C54.7507 171.05 54.4395 170.778 54.2838 170.233L28.8391 86.7793C28.6057 85.9234 28.9169 85.4954 29.7728 85.4954C30.2397 85.4954 30.551 85.7678 30.7066 86.3125ZM73.7759 86.7793L52.7665 144.439C52.6887 144.516 52.6498 144.594 52.6498 144.672L53.5835 147.94L75.8769 86.1957C76.0325 85.7289 76.3437 85.4954 76.8106 85.4954C77.7444 85.4954 78.0556 85.9623 77.7444 86.8961L54.5173 151.092L55.5677 154.476L80.5456 86.1957C80.7012 85.7289 81.0125 85.4954 81.4794 85.4954C82.4131 85.4954 82.7244 85.9623 82.4131 86.8961L56.6182 157.628L57.552 160.662L84.7475 86.1957C84.9031 85.7289 85.2144 85.4954 85.6812 85.4954C86.615 85.4954 86.9262 85.9623 86.615 86.8961L58.7192 163.114C58.6413 163.347 58.5246 163.503 58.369 163.58L59.4195 166.965L88.7159 87.1295C88.7938 86.8182 88.9883 86.5848 89.2995 86.4292C89.3773 86.0401 89.6886 85.8067 90.2333 85.7289C90.7002 85.7289 91.0114 85.9623 91.167 86.4292L110.776 140.47L126.299 86.3125C126.455 85.7678 126.766 85.4954 127.233 85.4954C128.089 85.4954 128.4 85.9234 128.167 86.7793L111.943 143.621L113.11 146.89L130.385 86.3125C130.54 85.7678 130.852 85.4954 131.318 85.4954C132.174 85.4954 132.486 85.9234 132.252 86.7793L114.394 149.457C114.394 149.613 114.316 149.769 114.161 149.924L115.445 153.426L134.703 86.3125C134.859 85.7678 135.17 85.4954 135.637 85.4954C136.493 85.4954 136.804 85.9234 136.571 86.7793L116.729 156.227C116.729 156.383 116.69 156.499 116.612 156.577L117.662 159.379L138.905 86.079C139.061 85.6121 139.372 85.3787 139.839 85.3787C140.695 85.3787 141.006 85.8067 140.773 86.6626L118.829 162.53L119.997 165.915L143.107 86.3125C143.263 85.7678 143.574 85.4954 144.041 85.4954C144.897 85.4954 145.208 85.9234 144.974 86.7793L121.397 169.65C121.709 170.506 121.397 170.973 120.464 171.05C120.152 171.284 119.763 171.284 119.296 171.05C118.829 170.817 118.674 170.428 118.829 169.883L119.063 169.183L110.076 144.322C109.998 144.166 109.92 144.011 109.842 143.855L89.9998 89.1137L89.0661 91.915L117.312 169.65C117.623 170.584 117.312 171.05 116.378 171.05C115.911 171.05 115.6 170.817 115.445 170.35L88.0156 94.7162L86.7317 98.1011C86.8095 98.1011 86.8484 98.14 86.8484 98.2178L112.76 169.65C113.071 170.584 112.76 171.05 111.826 171.05C111.359 171.05 111.048 170.817 110.893 170.35L85.6812 100.902L84.7475 103.704C84.8253 103.859 84.9031 104.015 84.9809 104.17L108.675 169.65C108.986 170.584 108.675 171.05 107.741 171.05C107.274 171.05 106.963 170.817 106.807 170.35L83.697 106.505L82.5298 109.54C82.6076 109.617 82.6855 109.734 82.7633 109.89L104.473 169.65C104.784 170.584 104.473 171.05 103.539 171.05C103.072 171.05 102.761 170.817 102.605 170.35L81.5961 112.341L60.5867 169.767C60.5088 169.922 60.431 170.039 60.3532 170.117C60.2754 170.661 59.9642 170.934 59.4195 170.934C58.8748 171.012 58.5246 170.778 58.369 170.233L32.8075 86.4292C32.5741 85.5732 32.8854 85.1453 33.7413 85.1453C34.2082 85.1453 34.5194 85.4176 34.675 85.9623L51.716 141.637L71.9084 86.079C72.064 85.6121 72.3753 85.3787 72.8422 85.3787C73.7759 85.3787 74.0872 85.8456 73.7759 86.7793Z" fill="#FFE0A3"/>
<path d="M144.98 86.1274L178.829 170.587C179.191 171.529 178.901 172 177.959 172C177.524 172 177.235 171.765 177.09 171.294L144.002 88.8352L144.98 86.1274Z" fill="#FFE0A3"/>
<path d="M143.024 91.543L174.916 170.587C175.278 171.529 174.988 172 174.046 172C173.611 172 173.321 171.765 173.176 171.294L142.045 94.2507L143.024 91.543Z" fill="#FFE0A3"/>
<path d="M141.067 96.9585L170.894 170.587C171.256 171.529 170.966 172 170.024 172C169.589 172 169.3 171.765 169.155 171.294L139.98 99.6662L141.067 96.9585Z" fill="#FFE0A3"/>
<path d="M139.111 102.256L166.981 170.587C167.343 171.529 167.053 172 166.111 172C165.676 172 165.386 171.765 165.242 171.294L138.132 104.964L139.111 102.256Z" fill="#FFE0A3"/>
<path d="M149.698 139.86L136.067 110.497L137.045 107.789L151.763 140.213L156.22 152.339C156.292 152.496 156.328 152.614 156.328 152.693L157.633 156.224C157.778 156.381 157.85 156.617 157.85 156.931L162.959 170.587C163.321 171.529 163.031 172 162.089 172C161.654 172 161.365 171.765 161.22 171.294L156.328 157.873L122.981 157.873L123.742 155.871L155.567 155.871L154.807 153.87L124.503 153.87L125.264 151.868L154.046 151.868L153.393 149.867L125.916 149.867L126.677 147.866L152.633 147.866L151.872 145.864L127.438 145.864L128.199 143.863L151.111 143.863L150.459 141.861L128.851 141.861L129.612 139.86L149.698 139.86Z" fill="#FFE0A3"/>
<path d="M194.151 84C206.679 84 217.34 88.2797 226.132 96.8391C234.925 105.398 239.322 115.864 239.322 128.236C239.322 140.687 234.925 151.191 226.132 159.751C217.34 168.31 206.679 172.59 194.151 172.59C181.623 172.59 170.963 168.31 162.17 159.751C153.377 151.191 148.981 140.687 148.981 128.236C148.981 115.864 153.377 105.398 162.17 96.8391C170.963 88.2797 181.623 84 194.151 84ZM194.151 85.9842C182.168 85.9842 171.975 90.0694 163.571 98.2397C155.167 106.41 150.965 116.409 150.965 128.236C150.965 140.142 155.167 150.18 163.571 158.35C171.975 166.52 182.168 170.605 194.151 170.605C206.134 170.605 216.328 166.52 224.732 158.35C233.135 150.18 237.337 140.142 237.337 128.236C237.337 116.409 233.135 106.41 224.732 98.2397C216.328 90.0694 206.134 85.9842 194.151 85.9842ZM194.151 87.9684C205.59 87.9684 215.316 91.8591 223.331 99.6403C231.346 107.422 235.353 116.954 235.353 128.236C235.353 139.597 231.346 149.168 223.331 156.949C215.316 164.653 205.59 168.505 194.151 168.505C182.713 168.505 172.986 164.653 164.972 156.949C156.957 149.168 152.95 139.597 152.95 128.236C152.95 116.954 156.957 107.422 164.972 99.6403C172.986 91.8591 182.713 87.9684 194.151 87.9684ZM194.151 89.9527C183.258 89.9527 173.998 93.6488 166.372 101.041C158.747 108.433 154.934 117.498 154.934 128.236C154.934 139.052 158.747 148.157 166.372 155.549C173.998 162.863 183.258 166.52 194.151 166.52C205.045 166.52 214.305 162.863 221.93 155.549C229.556 148.157 233.369 139.052 233.369 128.236C233.369 117.498 229.556 108.433 221.93 101.041C214.305 93.6488 205.045 89.9527 194.151 89.9527ZM194.151 91.9369C204.5 91.9369 213.293 95.4385 220.53 102.442C227.766 109.445 231.385 118.043 231.385 128.236C231.385 138.508 227.766 147.145 220.53 154.148C213.293 161.073 204.5 164.536 194.151 164.536C183.802 164.536 175.009 161.073 167.773 154.148C160.536 147.145 156.918 138.508 156.918 128.236C156.918 118.043 160.536 109.445 167.773 102.442C175.009 95.4385 183.802 91.9369 194.151 91.9369ZM194.151 93.9211C184.347 93.9211 176.021 97.2282 169.173 103.842C162.326 110.456 158.902 118.588 158.902 128.236C158.902 137.963 162.326 146.133 169.173 152.747C176.021 159.284 184.347 162.552 194.151 162.552C203.956 162.552 212.282 159.284 219.129 152.747C225.977 146.133 229.4 137.963 229.4 128.236C229.4 118.588 225.977 110.456 219.129 103.842C212.282 97.2282 203.956 93.9211 194.151 93.9211ZM194.151 95.9053C203.411 95.9053 211.27 99.0178 217.729 105.243C224.187 111.468 227.416 119.132 227.416 128.236C227.416 137.418 224.187 145.122 217.729 151.347C211.27 157.494 203.411 160.568 194.151 160.568C184.892 160.568 177.033 157.494 170.574 151.347C164.116 145.122 160.886 137.418 160.886 128.236C160.886 119.132 164.116 111.468 170.574 105.243C177.033 99.0178 184.892 95.9053 194.151 95.9053ZM194.151 97.8896C185.436 97.8896 178.044 100.846 171.975 106.76C165.905 112.596 162.871 119.755 162.871 128.236C162.871 136.796 165.905 143.994 171.975 149.83C178.044 155.665 185.436 158.583 194.151 158.583C202.866 158.583 210.259 155.665 216.328 149.83C222.397 143.994 225.432 136.796 225.432 128.236C225.432 119.755 222.397 112.596 216.328 106.76C210.259 100.846 202.866 97.8896 194.151 97.8896ZM194.151 99.8738C202.244 99.8738 209.13 102.597 214.811 108.044C220.569 113.491 223.448 120.222 223.448 128.236C223.448 136.329 220.569 143.099 214.811 148.546C209.13 153.915 202.244 156.599 194.151 156.599C186.059 156.599 179.133 153.915 173.375 148.546C167.695 143.099 164.855 136.329 164.855 128.236C164.855 120.222 167.695 113.491 173.375 108.044C179.133 102.597 186.059 99.8738 194.151 99.8738ZM194.151 101.858C186.526 101.858 180.067 104.426 174.776 109.561C169.485 114.619 166.839 120.844 166.839 128.236C166.839 135.707 169.485 141.97 174.776 147.028C180.067 152.086 186.526 154.615 194.151 154.615C201.777 154.615 208.235 152.086 213.527 147.028C218.818 141.97 221.464 135.707 221.464 128.236C221.464 120.844 218.818 114.619 213.527 109.561C208.235 104.426 201.777 101.858 194.151 101.858Z" fill="#FFE0A3"/>
</svg>
